<svg width="72" height="72" viewBox="0 0 72 72" fill="none" xmlns="http://www.w3.org/2000/svg">
<rect width="72" height="72" rx="36" fill="#1B3022"/>
<path d="M18.5643 38.348C18.527 38.4693 18.5083 38.5907 18.5083 38.712C18.5083 38.8147 18.5223 38.9033 18.5503 38.978C18.5783 39.0433 18.6063 39.0993 18.6343 39.146C18.6716 39.1833 18.695 39.2113 18.7043 39.23C18.7976 39.3233 18.8443 39.4167 18.8443 39.51C18.8443 39.5287 18.835 39.5753 18.8163 39.65C18.779 39.7807 18.695 39.874 18.5643 39.93C18.443 39.9767 18.2516 40 17.9903 40H14.6723C14.4763 40 14.3223 39.9673 14.2103 39.902C14.1076 39.8367 14.0563 39.748 14.0563 39.636C14.0563 39.58 14.0703 39.5193 14.0983 39.454C14.1263 39.3793 14.1636 39.3233 14.2103 39.286C14.2663 39.2393 14.341 39.188 14.4343 39.132C14.5836 39.048 14.705 38.9547 14.7983 38.852C14.8916 38.7493 14.971 38.5813 15.0363 38.348L15.4003 37.144H13.2163L12.8383 37.942C12.6796 38.2873 12.6003 38.558 12.6003 38.754C12.6003 38.866 12.619 38.9593 12.6563 39.034C12.6936 39.0993 12.7496 39.1693 12.8243 39.244C12.8896 39.3187 12.9316 39.384 12.9503 39.44C12.9783 39.4867 12.983 39.552 12.9643 39.636C12.927 39.776 12.8476 39.874 12.7263 39.93C12.6143 39.9767 12.4323 40 12.1803 40H10.0943C9.87965 40 9.71631 39.9627 9.60431 39.888C9.49231 39.804 9.43631 39.6967 9.43631 39.566C9.43631 39.4167 9.49231 39.3 9.60431 39.216C9.70698 39.1227 9.86565 39.0247 10.0803 38.922C10.3603 38.782 10.5843 38.6467 10.7523 38.516C10.9203 38.376 11.065 38.1847 11.1863 37.942L13.6783 32.776C14.061 31.9733 14.509 31.3947 15.0223 31.04C15.545 30.676 16.231 30.494 17.0803 30.494C18.0323 30.494 18.7696 30.69 19.2923 31.082C19.815 31.4647 20.0763 32.0013 20.0763 32.692C20.0763 32.9813 20.0296 33.28 19.9363 33.588L18.5643 38.348ZM15.8203 35.744L16.5623 33.28C16.5996 33.168 16.6183 33.0513 16.6183 32.93C16.6183 32.7527 16.567 32.622 16.4643 32.538C16.371 32.4447 16.2356 32.398 16.0583 32.398C15.8343 32.398 15.643 32.4633 15.4843 32.594C15.3256 32.7247 15.167 32.958 15.0083 33.294L13.8603 35.744H15.8203ZM30.177 30.62C30.569 30.62 30.8957 30.746 31.157 30.998C31.4183 31.25 31.549 31.5907 31.549 32.02C31.549 32.5053 31.4043 32.8973 31.115 33.196C30.8257 33.4947 30.4803 33.644 30.079 33.644C29.8177 33.644 29.5937 33.5973 29.407 33.504C29.2203 33.4107 29.043 33.2613 28.875 33.056L27.671 34.064L29.029 38.082C29.113 38.3153 29.2017 38.502 29.295 38.642C29.3977 38.782 29.519 38.922 29.659 39.062C29.7617 39.1647 29.8317 39.2487 29.869 39.314C29.9157 39.37 29.939 39.44 29.939 39.524C29.939 39.6733 29.869 39.79 29.729 39.874C29.5983 39.958 29.365 40 29.029 40H27.195C26.7377 40 26.397 39.902 26.173 39.706C25.9583 39.5007 25.781 39.1647 25.641 38.698L24.941 36.346L24.535 36.682L24.073 38.348C24.0357 38.4693 24.017 38.586 24.017 38.698C24.017 38.81 24.031 38.9033 24.059 38.978C24.0963 39.0527 24.1477 39.132 24.213 39.216C24.297 39.3373 24.339 39.4353 24.339 39.51C24.339 39.5287 24.3297 39.5753 24.311 39.65C24.2737 39.7807 24.1897 39.874 24.059 39.93C23.9283 39.9767 23.7323 40 23.471 40H20.181C19.985 40 19.8357 39.9673 19.733 39.902C19.621 39.8367 19.565 39.748 19.565 39.636C19.565 39.58 19.579 39.5193 19.607 39.454C19.6443 39.3513 19.705 39.272 19.789 39.216C19.873 39.16 19.9243 39.1273 19.943 39.118C20.0923 39.0247 20.2137 38.9313 20.307 38.838C20.4003 38.7353 20.4797 38.572 20.545 38.348L22.253 32.314C22.2903 32.1927 22.309 32.076 22.309 31.964C22.309 31.8613 22.2903 31.7773 22.253 31.712C22.225 31.6373 22.183 31.5533 22.127 31.46C22.043 31.3387 22.001 31.2407 22.001 31.166C22.001 31.138 22.0103 31.0867 22.029 31.012C22.0663 30.8907 22.1457 30.8067 22.267 30.76C22.3977 30.704 22.5937 30.676 22.855 30.676H26.145C26.341 30.676 26.4903 30.7087 26.593 30.774C26.705 30.83 26.761 30.914 26.761 31.026C26.761 31.0727 26.747 31.1333 26.719 31.208C26.691 31.2733 26.649 31.334 26.593 31.39C26.5463 31.4367 26.4997 31.474 26.453 31.502C26.4157 31.5207 26.3877 31.5393 26.369 31.558C26.2197 31.642 26.0983 31.7353 26.005 31.838C25.9117 31.9407 25.8323 32.0993 25.767 32.314L25.179 34.4L28.889 31.194C29.1317 30.9887 29.351 30.844 29.547 30.76C29.743 30.6667 29.953 30.62 30.177 30.62ZM39.1138 36.388C39.3751 36.388 39.5711 36.444 39.7018 36.556C39.8418 36.6587 39.9118 36.808 39.9118 37.004C39.9118 37.088 39.8978 37.1813 39.8698 37.284L39.4078 38.922C39.2865 39.3233 39.1138 39.6033 38.8898 39.762C38.6751 39.9207 38.3531 40 37.9238 40H31.3438C31.1478 40 30.9985 39.9673 30.8958 39.902C30.7838 39.8367 30.7278 39.748 30.7278 39.636C30.7278 39.58 30.7418 39.5193 30.7698 39.454C30.7978 39.3793 30.8445 39.3187 30.9098 39.272C30.9751 39.216 31.0451 39.1647 31.1198 39.118C31.2691 39.0247 31.3905 38.9313 31.4838 38.838C31.5771 38.7353 31.6565 38.572 31.7218 38.348L33.4298 32.314C33.4671 32.1927 33.4858 32.076 33.4858 31.964C33.4858 31.8613 33.4671 31.7773 33.4298 31.712C33.4018 31.6373 33.3598 31.5533 33.3038 31.46C33.2198 31.3387 33.1778 31.2407 33.1778 31.166C33.1778 31.138 33.1871 31.0867 33.2058 31.012C33.2431 30.8907 33.3225 30.8067 33.4438 30.76C33.5745 30.704 33.7705 30.676 34.0318 30.676H37.3218C37.5178 30.676 37.6671 30.7087 37.7698 30.774C37.8818 30.83 37.9378 30.914 37.9378 31.026C37.9378 31.0727 37.9238 31.1333 37.8958 31.208C37.8678 31.2733 37.8258 31.334 37.7698 31.39C37.7231 31.4367 37.6765 31.474 37.6298 31.502C37.5925 31.5207 37.5645 31.5393 37.5458 31.558C37.3965 31.642 37.2751 31.7353 37.1818 31.838C37.0885 31.9407 37.0091 32.0993 36.9438 32.314L35.1378 38.656H36.0058C36.2205 38.656 36.4025 38.6187 36.5518 38.544C36.7105 38.4693 36.8738 38.3293 37.0418 38.124L38.0078 36.976C38.1851 36.7707 38.3531 36.6213 38.5118 36.528C38.6798 36.4347 38.8805 36.388 39.1138 36.388ZM51.3969 30.676C51.7796 30.676 51.9709 30.7973 51.9709 31.04C51.9709 31.1053 51.9663 31.152 51.9569 31.18C51.9289 31.2733 51.8869 31.348 51.8309 31.404C51.7749 31.4507 51.6956 31.5067 51.5929 31.572C51.4529 31.656 51.3363 31.7493 51.2429 31.852C51.1496 31.9547 51.0703 32.1133 51.0049 32.328L49.2689 38.544C49.1103 39.104 48.9096 39.496 48.6669 39.72C48.4336 39.944 48.1069 40.056 47.6869 40.056C47.3136 40.056 47.0009 39.9487 46.7489 39.734C46.5063 39.51 46.2776 39.1693 46.0629 38.712L43.9489 34.26L42.7729 38.348C42.7449 38.4693 42.7309 38.5767 42.7309 38.67C42.7309 38.7913 42.7496 38.894 42.7869 38.978C42.8336 39.0527 42.8943 39.132 42.9689 39.216C43.0716 39.3373 43.1229 39.44 43.1229 39.524C43.1229 39.58 43.1183 39.622 43.1089 39.65C43.0716 39.7807 42.9876 39.874 42.8569 39.93C42.7263 39.9767 42.5303 40 42.2689 40H40.7429C40.3603 40 40.1689 39.8787 40.1689 39.636C40.1689 39.5707 40.1736 39.524 40.1829 39.496C40.2109 39.4027 40.2529 39.3327 40.3089 39.286C40.3649 39.23 40.4443 39.1693 40.5469 39.104C40.6869 39.02 40.8036 38.9267 40.8969 38.824C40.9903 38.7213 41.0696 38.5627 41.1349 38.348L42.9129 32.062L42.6889 31.6C42.5956 31.4133 42.5489 31.25 42.5489 31.11C42.5489 30.8207 42.7356 30.676 43.1089 30.676H45.1809C45.4796 30.676 45.7036 30.746 45.8529 30.886C46.0116 31.0167 46.1796 31.2547 46.3569 31.6L48.4009 35.702L49.3669 32.328C49.3949 32.1973 49.4089 32.09 49.4089 32.006C49.4089 31.8847 49.3856 31.7867 49.3389 31.712C49.3016 31.628 49.2456 31.544 49.1709 31.46C49.0683 31.3387 49.0169 31.236 49.0169 31.152C49.0169 31.096 49.0216 31.054 49.0309 31.026C49.0683 30.8953 49.1523 30.8067 49.2829 30.76C49.4136 30.704 49.6096 30.676 49.8709 30.676H51.3969ZM62.1148 30.62C62.5255 30.62 62.8615 30.7553 63.1228 31.026C63.3841 31.2873 63.5148 31.6233 63.5148 32.034C63.5148 32.09 63.5055 32.1927 63.4868 32.342C63.4121 32.79 63.2348 33.1213 62.9548 33.336C62.6841 33.5507 62.3668 33.658 62.0028 33.658C61.7601 33.658 61.5548 33.6207 61.3868 33.546C61.2188 33.4713 61.0601 33.3453 60.9108 33.168L58.6008 36.178L57.9568 38.348C57.9381 38.404 57.9288 38.4787 57.9288 38.572C57.9288 38.7027 57.9615 38.8147 58.0268 38.908C58.0921 38.992 58.1855 39.0853 58.3068 39.188C58.4095 39.2813 58.4841 39.3607 58.5308 39.426C58.5775 39.4913 58.5868 39.566 58.5588 39.65C58.5215 39.7807 58.4281 39.874 58.2788 39.93C58.1388 39.9767 57.9428 40 57.6908 40H54.1628C53.9201 40 53.7381 39.958 53.6168 39.874C53.5048 39.7807 53.4675 39.6547 53.5048 39.496C53.5235 39.412 53.5561 39.3467 53.6028 39.3C53.6588 39.244 53.7428 39.1787 53.8548 39.104C53.9948 39.02 54.1115 38.9267 54.2048 38.824C54.2981 38.712 54.3775 38.5533 54.4428 38.348L55.0868 36.164L53.7988 32.496C53.7055 32.2253 53.5935 32.02 53.4628 31.88C53.3415 31.7307 53.1968 31.586 53.0288 31.446C52.9261 31.3713 52.8515 31.306 52.8048 31.25C52.7581 31.194 52.7348 31.1287 52.7348 31.054C52.7348 30.942 52.7815 30.8533 52.8748 30.788C52.9775 30.7133 53.1221 30.676 53.3088 30.676H57.0468C57.3735 30.676 57.5975 30.704 57.7188 30.76C57.8401 30.816 57.9055 30.914 57.9148 31.054C57.9148 31.138 57.8961 31.2127 57.8588 31.278C57.8215 31.334 57.7655 31.404 57.6908 31.488C57.6068 31.6 57.5415 31.6933 57.4948 31.768C57.4575 31.8333 57.4388 31.9173 57.4388 32.02C57.4388 32.048 57.4481 32.1087 57.4668 32.202L58.1108 34.666L59.8888 32.132C60.2715 31.5907 60.6308 31.2033 60.9668 30.97C61.3121 30.7367 61.6948 30.62 62.1148 30.62Z" fill="#FF1971"/>
</svg>
