<svg width="18" height="18" viewBox="0 0 18 18" fill="none" xmlns="http://www.w3.org/2000/svg">
<path opacity="0.4" d="M15.9375 6.86253C15.57 6.27753 15.15 5.75253 14.715 5.28003L11.8875 8.10753C11.9775 8.38503 12.03 8.68503 12.03 9.00003C12.03 10.68 10.6725 12.03 8.99995 12.03C8.68495 12.03 8.38495 11.9775 8.10745 11.8875L5.51245 14.4825C6.60745 15.0975 7.79245 15.42 8.99995 15.42C10.335 15.42 11.6325 15.03 12.8175 14.3025C14.0025 13.5675 15.0675 12.495 15.9375 11.13C16.6875 9.96003 16.6875 8.04003 15.9375 6.86253Z" fill="#5CA374"/>
<path d="M10.515 7.48498L7.48498 10.515C7.10248 10.125 6.85498 9.58498 6.85498 8.99998C6.85498 7.82248 7.81498 6.85498 8.99998 6.85498C9.58498 6.85498 10.125 7.10248 10.515 7.48498Z" fill="#5CA374"/>
<path opacity="0.4" d="M13.6875 4.31251L11.145 6.85501C10.5975 6.30001 9.84 5.97001 9 5.97001C7.32 5.97001 5.97 7.32751 5.97 9.00001C5.97 9.84001 6.3075 10.5975 6.855 11.145L4.32 13.6875H4.3125C3.48 13.0125 2.715 12.15 2.0625 11.13C1.3125 9.95251 1.3125 8.04001 2.0625 6.86251C2.9325 5.49751 3.9975 4.42501 5.1825 3.69001C6.3675 2.97001 7.665 2.57251 9 2.57251C10.6725 2.57251 12.2925 3.18751 13.6875 4.31251Z" fill="#5CA374"/>
<path d="M11.1451 9.00006C11.1451 10.1776 10.1851 11.1451 9.00006 11.1451C8.95506 11.1451 8.91756 11.1451 8.87256 11.1301L11.1301 8.87256C11.1451 8.91756 11.1451 8.95506 11.1451 9.00006Z" fill="#5CA374"/>
<path d="M16.3274 1.67241C16.1024 1.44741 15.7349 1.44741 15.5099 1.67241L1.67241 15.5174C1.44741 15.7424 1.44741 16.1099 1.67241 16.3349C1.78491 16.4399 1.92741 16.4999 2.07741 16.4999C2.22741 16.4999 2.36991 16.4399 2.48241 16.3274L16.3274 2.48241C16.5599 2.25741 16.5599 1.89741 16.3274 1.67241Z" fill="#5CA374"/>
</svg>
